# xmcd CD database file
#
# Track frame offsets:
#	182
#	16592
#	33332
#	47682
#	62910
#	81170
#	100240
#	115275
#	132320
#	145812
#	171242
#	190917
#	202247
#	219012
#	231425
#	249700
#	267167
#	281532
#	296840
#	315467
#
# Disc length: 4488 seconds
#
# Revision: 0
# Processed by: cddbd v1.4PL0 Copyright (c) Steve Scherf et al.
# Submitted via: Feurio! 1.65 - http://www.feurio.com
#
DISCID=2b118614
DTITLE=Barefoot Jerry - Watchin' TV - You Can't Get Off With Your Shoes On
DYEAR=1900
DGENRE=
TTITLE0=Watchin' TV (With The Radio On)
TTITLE1=Funny Lookin' Eyes
TTITLE2=Pig Snoots And Nehi Red
TTITLE3=Hay Queen
TTITLE4=Two Mile Pike
TTITLE5=Faded Love
TTITLE6=There Must Be A Better Way
TTITLE7=If There Were Only Time For Love
TTITLE8=Violets And Daffodils
TTITLE9=Mother Nature's Way Of Saying High
TTITLE10=Ali baba
TTITLE11=Boogie Woogie
TTITLE12=Slowin' Down
TTITLE13=You Can't Get Off With Your Shoes On
TTITLE14=West Side Of Mississippi
TTITLE15=The Measure Of Your Worth
TTITLE16=Lucille
TTITLE17=Hero Frodo
TTITLE18=Sinkin' In The Sea
TTITLE19=Cades Cove
EXTD=
EXTT0=
EXTT1=
EXTT2=
EXTT3=
EXTT4=
EXTT5=
EXTT6=
EXTT7=
EXTT8=
EXTT9=
EXTT10=
EXTT11=
EXTT12=
EXTT13=
EXTT14=
EXTT15=
EXTT16=
EXTT17=
EXTT18=
EXTT19=
PLAYORDER=
